<svg width="24" height="24" viewBox="0 0 24 24" fill="none" xmlns="http://www.w3.org/2000/svg">
<path d="M15.6885 4H19.4991L19.5142 4.00594C19.6925 4.07489 19.897 4.14967 19.9495 4.326C20.0228 4.57225 19.9934 4.98184 19.9933 5.23754L19.9932 6.63734L19.9932 10.3712L19.9932 16.4358L19.9932 18.4452C19.9933 18.7773 19.9942 19.1098 19.9934 19.4417C19.9928 19.713 19.8463 19.8923 19.5553 19.9852C19.5384 19.9906 19.5324 19.9916 19.5178 20H15.6628C15.6362 19.9858 15.5874 19.9691 15.5568 19.9552C15.4242 19.8945 15.3174 19.8155 15.2552 19.6945C15.2141 19.6146 15.2017 19.5078 15.2012 19.4206C15.1996 19.1387 15.2012 18.8561 15.2012 18.5742L15.2013 16.8909L15.2012 11.7909L15.2012 6.95246L15.2014 5.35346C15.2014 5.09049 15.1965 4.82487 15.2014 4.56209C15.2079 4.21948 15.3632 4.12204 15.6885 4Z" fill="#6AA9E2"/>
<path d="M10.0815 20C9.91411 19.9351 9.70749 19.835 9.65428 19.674C9.57762 19.4418 9.60705 19.0534 9.60741 18.8138L9.60776 17.681V14.1744L9.60758 10.4707L9.60723 9.23504C9.60723 9.01411 9.60723 8.79048 9.60893 8.56986C9.61143 8.23459 9.82923 8.00574 10.2199 8.00121C10.4378 7.99869 10.6596 8.00082 10.8784 8.00126L12.1085 8.00173L13.2347 8.00158C13.4222 8.00135 13.6103 7.99812 13.7971 8.00164C14.1437 8.00818 14.3936 8.24306 14.3995 8.54738C14.4029 8.71751 14.4012 8.8873 14.4005 9.0575L14.4003 9.92807L14.4004 12.8358L14.4003 17.226L14.4007 18.6696C14.4008 18.9199 14.402 19.1713 14.3997 19.4217C14.3989 19.5137 14.3832 19.6168 14.3385 19.7011C14.2654 19.8387 14.1199 19.9322 13.9631 19.9857C13.9503 19.99 13.937 19.9939 13.9254 20H10.0815Z" fill="#F0CA46"/>
<path d="M6.39692 12.003L7.68721 12.0024C7.88324 12.0023 8.13915 11.9917 8.32622 12.0158C8.55519 12.0453 8.77431 12.2625 8.79168 12.4702C8.8009 12.5791 8.8 12.6873 8.79991 12.7958L8.79964 13.2626L8.79937 14.8435L8.79919 17.9291C8.79919 18.4278 8.79973 18.9272 8.8 19.4254C8.80018 19.6526 8.70118 19.8256 8.48448 19.9382C8.43167 19.9657 8.39309 19.9767 8.34135 20H6.39782H4.47646C4.37922 19.9488 4.28808 19.9377 4.18599 19.8458C4.0295 19.705 4.00261 19.5546 4.00222 19.3621C4.00121 18.8544 4.00244 18.3466 4.00259 17.8393L4.00253 14.8513L4.00211 13.2904C4.00199 13.0214 3.9929 12.7452 4.01338 12.4781C4.03044 12.2558 4.24076 12.0533 4.48152 12.0214C4.69871 11.9926 4.9359 12.0033 5.15671 12.0034L6.39692 12.003Z" fill="#FF3500"/>
<path d="M4.47619 20C4.37901 19.9488 4.28792 19.9376 4.18588 19.8458C4.02949 19.705 4.00261 19.5545 4.00222 19.362C4.00121 18.8542 4.00244 18.3464 4.00259 17.8389L4.00252 14.8504L4.00211 13.2892C4.00199 13.0202 3.99291 12.744 4.01338 12.4768C4.03042 12.2544 4.24062 12.052 4.48125 12.02C4.69831 11.9912 4.93537 12.0019 5.15606 12.002L6.39557 12.0016C6.40443 12.3862 6.39727 12.7938 6.39727 13.1798L6.39736 15.4156V18.4158C6.39736 18.9413 6.40264 19.4753 6.39646 20H4.47619Z" fill="#FF6245"/>
</svg>
